# xmcd
#
# Track frame offsets: 
#        150
#        9902
#        24632
#        42762
#        57717
#        74072
#        89037
#        98790
#        118522
#        132707
#
# Disc length: 1995 seconds
#
# Revision: 9
# Processed by: cddbd v1.5.2PL0 Copyright (c) Steve Scherf et al.
# Submitted via: ExactAudioCopy v0.99pb4
#
DISCID=9107c90a
DTITLE=Wheatus - Wheatus
DYEAR=2000
DGENRE=Pop Punk
TTITLE0=Truffles
TTITLE1=Sunshine
TTITLE2=Teenage Dirtbag
TTITLE3=A Little Respect
TTITLE4=Hump'em N' Dump'em
TTITLE5=Leroy
TTITLE6=Hey, Mr. Brown
TTITLE7=Love Is a Mutt from Hell
TTITLE8=Punk Ass Bitch
TTITLE9=Wannabe Gangstar
EXTD=YEAR: 2000 ID3G: 43
EXTT0=
EXTT1=
EXTT2=
EXTT3=
EXTT4=
EXTT5=
EXTT6=
EXTT7=
EXTT8=
EXTT9=
PLAYORDER=
